Coordinates
version=1
nRows=16
nColumns=36
inDegrees=yes

Units are S.I. units (second, meters, Newtons, ...)
If the header above contains a line with 'inDegrees', this indicates whether rotational values are in degrees (yes) or radians (no).

endheader
time	pelvis_tilt	pelvis_list	pelvis_rotation	pelvis_tx	pelvis_ty	pelvis_tz	hip_flexion_r	hip_adduction_r	hip_rotation_r	knee_angle_r	knee_angle_r_beta	ankle_angle_r	subtalar_angle_r	mtp_angle_r	hip_flexion_l	hip_adduction_l	hip_rotation_l	knee_angle_l	knee_angle_l_beta	ankle_angle_l	subtalar_angle_l	mtp_angle_l	lumbar_extension	lumbar_bending	lumbar_rotation	arm_flex_r	arm_add_r	arm_rot_r	elbow_flex_r	pro_sup_r	arm_flex_l	arm_add_l	arm_rot_l	elbow_flex_l	pro_sup_l
      1.81000000	    -15.38403804	     -1.15351410	     -0.80516204	     -0.72310146	      1.29437315	     -0.58767524	     13.81333940	     -1.33637921	     -2.30925475	     37.95672145	      0.66246976	    -31.10439408	    -14.82358039	     -5.90021991	     15.28539306	     -2.48521403	      2.06205096	     40.27850162	      0.70299247	    -25.65022374	    -10.78992454	     -5.90021991	      5.13599738	      1.77229699	     -2.74242959	     27.69332818	    -13.65953974	     13.81513642	     43.25376429	    108.64846262	     20.78709221	    -13.69713000	     -0.34544038	     46.99454289	    105.14123549
      1.82000000	    -15.28741271	     -1.27517975	     -0.79998523	     -0.71380008	      1.29683337	     -0.58795749	     15.47857470	     -1.28714907	     -2.20982079	     40.79720559	      0.71204556	    -30.40001819	    -16.08190856	     -5.91774859	     16.93859951	     -2.76413872	      1.96702888	     42.73078641	      0.74579291	    -25.24689832	    -11.71088068	     -5.91774859	      4.55392318	      1.90083774	     -2.71204437	     27.08462415	    -14.10356818	     13.84431769	     42.68842911	    108.55916078	     20.08865747	    -13.95057579	     -0.16866507	     46.47952512	    105.24799138
      1.83000000	    -15.45881993	     -1.32174166	     -0.85079491	     -0.70465441	      1.29801422	     -0.58809200	     17.36581793	     -1.24787883	     -1.95663623	     43.20353589	      0.75404395	    -29.26205928	    -17.53011675	     -5.93901112	     18.76037983	     -2.91507122	      2.08984473	     44.66987408	      0.77963638	    -24.82440986	    -12.58451887	     -5.93901112	      4.23946951	      1.94112574	     -2.70524918	     26.40871182	    -14.46243630	     13.85108879	     41.84745905	    108.41333947	     19.26832374	    -14.30217764	      0.02297544	     45.71513837	    105.40018171
      1.84000000	    -15.40849313	     -1.31963516	     -0.88129946	     -0.69558996	      1.29868503	     -0.58820893	     18.89268194	     -1.33444892	     -1.92820056	     45.00770184	      0.78553259	    -28.28412820	    -18.58622142	     -5.95853463	     20.24058372	     -3.07738603	      2.07426250	     46.04776534	      0.80368512	    -24.41298873	    -13.10662399	     -5.95853463	      3.54638340	      1.90185983	     -2.69803733	     25.70121945	    -14.76746616	     13.67903793	     40.96363313	    108.24268073	     18.44440604	    -14.64948962	     -0.07247034	     44.93682444	    105.43566483
      1.85000000	    -15.24158746	     -1.30297914	     -0.85611275	     -0.68668666	      1.29867200	     -0.58850640	     20.18718840	     -1.51643907	     -2.08899801	     46.27875010	      0.80771656	    -27.48915700	    -19.41624514	     -5.97321392	     21.52477111	     -3.23414306	      2.02165075	     46.92295191	      0.81896001	    -23.91565229	    -13.28465706	     -5.97321392	      2.61237331	      1.87329036	     -2.72351415	     24.89945783	    -15.05964887	     13.36000536	     40.15036857	    108.07583203	     17.57232475	    -14.93929351	     -0.37779321	     44.26315268	    105.37525898
      1.86000000	    -15.32099170	     -1.25059390	     -0.74579332	     -0.67813459	      1.29751891	     -0.58889247	     21.68806420	     -1.77459786	     -2.34781582	     47.10939774	      0.82221410	    -26.45497559	    -20.35372254	     -5.99279591	     23.02025418	     -3.33893516	      2.01907264	     47.28238328	      0.82523327	    -23.15350322	    -12.99055457	     -5.99279591	      1.86133331	      1.78831111	     -2.85747806	     24.03575235	    -15.18957127	     12.62410078	     39.12309834	    107.81022769	     16.50180047	    -15.17013998	     -0.94576902	     43.51012635	    105.28394347
      1.87000000	    -15.05362298	     -1.32840047	     -0.68139283	     -0.66952204	      1.29607957	     -0.58922540	     22.67943329	     -1.97914067	     -2.79344941	     47.28937170	      0.82535524	    -26.04808533	    -20.66607586	     -5.99867090	     23.96325443	     -3.67155946	      1.80513841	     46.95836184	      0.81957803	    -22.90211003	    -12.77664228	     -5.99867090	      0.58067530	      1.86988303	     -2.91553642	     23.07115768	    -15.46855161	     12.25576209	     38.47708424	    107.68692873	     15.34953897	    -15.35580308	     -1.21862580	     42.92375324	    105.21866643
      1.88000000	    -15.07530776	     -1.31367429	     -0.59583041	     -0.66116965	      1.29329485	     -0.58941873	     23.96262519	     -2.26243015	     -3.19172863	     47.18995948	      0.82362017	    -24.74979472	    -20.83249382	     -6.06201187	     25.20303492	     -3.93070528	      1.61556242	     46.40813154	      0.80997470	    -21.37522565	    -10.82053154	     -6.06201187	     -0.41068520	      1.81552486	     -3.19157785	     22.10842342	    -14.97100278	      9.58782287	     37.19876301	    106.91343589	     13.92377350	    -15.19864258	     -3.39324823	     42.25517609	    105.09708830
      1.89000000	    -14.84815497	     -1.32497157	     -0.55765021	     -0.65259470	      1.29007796	     -0.58955044	     24.79856720	     -2.46357863	     -3.54455819	     46.43306863	      0.81040993	    -24.40954877	    -20.96457851	     -6.07210162	     25.96779309	     -4.20902688	      1.32683621	     45.24792717	      0.78972531	    -21.19705466	    -10.63038144	     -6.07210162	     -1.77613367	      1.78360750	     -3.17611004	     20.76751817	    -15.33805542	      9.50903479	     36.68207876	    106.82335325	     12.58597886	    -15.39044974	     -3.69778962	     41.75125147	    104.98508386
      1.90000000	    -14.50725651	     -1.26238846	     -0.48896600	     -0.64391187	      1.28625188	     -0.58978197	     25.35528032	     -2.72876102	     -3.73055180	     45.18593088	      0.78864327	    -24.32868541	    -20.76083354	     -6.09340886	     26.41075869	     -4.36121507	      1.18320610	     43.53346237	      0.75980225	    -21.11151794	     -9.90394449	     -6.09340886	     -3.32088805	      1.68183636	     -3.19150487	     19.35360999	    -15.56002333	      9.39576640	     35.81552395	    106.98893843	     11.13620585	    -15.46706400	     -4.57218169	     41.34943813	    104.87944434
      1.91000000	    -14.28136336	     -1.24384999	     -0.36420763	     -0.63523547	      1.28130516	     -0.59021863	     25.95926410	     -3.05699089	     -4.02775712	     43.63284913	      0.76153688	    -24.48788680	    -20.01164186	     -6.11679481	     26.91992976	     -4.49726177	      1.16115256	     41.57892315	      0.72568911	    -21.04883305	     -9.40696567	     -6.11679481	     -4.76407063	      1.61131566	     -3.36719338	     17.99056827	    -15.71486337	      9.18526569	     34.85154565	    107.32482952	      9.41519148	    -15.45668129	     -5.63533064	     41.04481949	    104.79386097
      1.92000000	    -14.14875851	     -1.24625160	     -0.21288528	     -0.62636907	      1.27511099	     -0.59077699	     26.59124784	     -3.47054172	     -4.42703280	     41.86907888	      0.73075328	    -24.08589277	    -18.41165857	     -6.26123831	     27.46342590	     -4.63164163	      1.15942967	     39.42341581	      0.68806841	    -21.23735305	     -9.38439588	     -6.26123831	     -6.16106018	      1.58229441	     -4.38186589	     17.23342037	    -15.37855897	      8.91784455	     33.39510544	    109.66084587	      6.53476293	    -14.94580528	     -9.65964123	     42.14460285	    105.76601547
      1.93000000	    -14.01744891	     -1.29533045	     -0.12993128	     -0.61736481	      1.26804023	     -0.59101667	     27.07006795	     -3.73208382	     -4.80515479	     39.61647747	      0.69143797	    -24.44535012	    -17.62682155	     -6.31318209	     27.94252219	     -4.89103058	      1.07595644	     37.08704275	      0.64729101	    -21.49390581	     -9.34396975	     -6.31318209	     -7.47417337	      1.59142784	     -4.53037106	     15.76527364	    -15.57882847	      8.89525158	     32.53893414	    109.85370692	      4.74570299	    -14.77966350	    -10.28056116	     41.22877576	    106.29197399
      1.94000000	    -14.15467719	     -1.27470467	     -0.09007481	     -0.60831560	      1.25946309	     -0.59120072	     27.81758986	     -4.03251844	     -5.21668327	     37.18864248	      0.64906426	    -24.72411344	    -17.07914249	     -6.32376437	     28.69088895	     -5.13632244	      0.81771944	     34.69399057	      0.60552437	    -21.56156045	     -9.05344969	     -6.32376437	     -8.46598579	      1.54677462	     -4.63444795	     14.00464262	    -15.78799658	      8.88305419	     31.99858755	    109.76889035	      2.75384022	    -14.72132262	    -10.50500060	     40.59557573	    106.27812461
      1.95000000	    -14.21165474	     -1.25466049	     -0.05206613	     -0.59885966	      1.25004474	     -0.59149763	     28.31562277	     -4.33250814	     -5.71128924	     34.34970584	      0.59951546	    -25.49353248	    -16.33663060	     -6.33703664	     29.22002412	     -5.36237852	      0.66735761	     32.04350125	      0.55926460	    -22.16884693	     -8.37230245	     -6.33703664	     -9.52228636	      1.54058257	     -4.80150916	     12.17588574	    -15.95966889	      8.87894190	     31.44349477	    109.72135595	      0.64332769	    -14.58149445	    -10.91175999	     39.91498502	    106.28567651
      1.96000000	    -14.28973965	     -1.24359834	      0.02367541	     -0.58909261	      1.23949126	     -0.59179439	     28.72956846	     -4.65298210	     -6.37025615	     31.29223947	      0.54615261	    -26.64317704	    -16.07227405	     -6.32128173	     29.74979288	     -5.61168118	      0.37980350	     29.32715025	      0.51185533	    -23.20259901	     -7.80102493	     -6.32128173	    -10.49140498	      1.53703166	     -4.94801724	     10.32059948	    -16.13987795	      8.98886515	     30.55367129	    110.57577650	     -1.43434029	    -14.35170925	    -11.33657337	     38.90165355	    107.12323290
